<svg xmlns="http://www.w3.org/2000/svg" width="16" height="16" fill="none" viewBox="0 0 16 16">
  <circle cx="8" cy="8" r="8" fill="#080808" />
  <path
    fill="#FEFFFE"
    d="M11.839 12.462a5.885 5.885 0 1 0-8.3-8.3l8.3 8.3ZM11.138 12.982l-8.12-8.12a5.84 5.84 0 0 0-.423.799l7.744 7.744c.274-.119.542-.26.799-.423ZM9.427 13.715 2.285 6.573a5.905 5.905 0 0 0-.164 1.057L8.37 13.88c.355-.023.71-.077 1.057-.164ZM7.09 13.821 2.18 8.91a5.859 5.859 0 0 0 1.654 3.258 5.858 5.858 0 0 0 3.257 1.654Z"
  />
</svg>